<?xml version="1.0" standalone="no"?>
<!DOCTYPE svg PUBLIC "-//W3C//DTD SVG 20010904//EN"
 "http://www.w3.org/TR/2001/REC-SVG-20010904/DTD/svg10.dtd">
<svg version="1.0" xmlns="http://www.w3.org/2000/svg"
 width="1500.000000pt" height="1500.000000pt" viewBox="0 0 1500.000000 1500.000000"
 preserveAspectRatio="xMidYMid meet">
<metadata>
Created by potrace 1.14, written by Peter Selinger 2001-2017
</metadata>
<g transform="translate(0.000000,1500.000000) scale(0.100000,-0.100000)"
fill="#000000" stroke="none">
<path d="M7761 9894 c-341 -101 -541 -361 -612 -793 -24 -146 -26 -465 -4
-656 8 -71 15 -137 15 -145 0 -8 -19 19 -43 60 -233 408 -512 668 -804 752
-65 19 -102 22 -218 22 -122 -1 -151 -4 -228 -27 -48 -15 -118 -42 -155 -59
l-67 -32 40 -3 c220 -18 483 -121 611 -239 l59 -55 -260 6 -260 6 115 -47
c153 -62 406 -191 503 -254 43 -29 104 -76 135 -106 l57 -54 -178 2 c-97 2
-177 2 -177 1 0 -1 103 -52 230 -114 126 -62 228 -114 226 -116 -2 -3 -40 7
-85 21 -387 122 -764 151 -1038 80 -111 -28 -233 -89 -323 -160 -98 -77 -200
-216 -255 -348 l-16 -39 33 22 c130 86 340 169 492 196 91 15 286 21 285 8 0
-5 -97 -77 -214 -162 -118 -85 -214 -156 -212 -157 1 -2 56 13 122 32 162 46
405 100 543 119 112 15 323 21 335 9 3 -4 -15 -23 -42 -43 -179 -136 -230
-177 -231 -182 0 -3 84 14 188 38 260 60 782 158 782 147 0 -3 -37 -22 -83
-43 -232 -108 -444 -255 -586 -407 -112 -120 -190 -255 -228 -394 -27 -98 -24
-289 5 -399 l23 -84 -34 -36 c-87 -93 -157 -217 -197 -348 -12 -40 -24 -73
-27 -73 -3 0 -2 86 2 191 4 108 3 189 -2 186 -5 -3 -22 -33 -38 -66 -16 -34
-32 -61 -36 -61 -21 0 -34 222 -21 365 5 55 8 101 7 103 -1 1 -26 -47 -55
-108 -65 -133 -75 -129 -74 30 0 85 5 119 25 178 14 39 22 72 18 72 -17 0
-119 -104 -143 -144 -95 -163 -67 -389 83 -671 l50 -93 -102 68 c-228 151
-410 185 -581 107 -47 -22 -173 -124 -164 -133 2 -1 30 4 63 12 100 23 292 13
310 -16 3 -4 -47 -27 -111 -51 l-116 -44 144 -6 c150 -7 233 -19 288 -41 l32
-13 -83 -35 -84 -35 110 -6 c151 -9 152 -9 50 -25 -305 -47 -487 -149 -570
-318 -28 -55 -37 -89 -42 -146 l-6 -75 40 50 c22 28 65 73 95 101 57 52 181
124 193 112 4 -4 -14 -42 -40 -85 -26 -43 -57 -94 -68 -113 l-21 -35 21 15
c11 8 56 42 99 75 132 102 272 185 311 185 6 0 -6 -32 -28 -72 -41 -75 -44
-95 -6 -61 27 25 362 253 372 253 3 0 -16 -26 -43 -57 -66 -78 -106 -138 -147
-224 -96 -202 -68 -388 82 -536 35 -35 69 -63 74 -63 5 0 1 17 -10 37 -31 63
-53 181 -46 246 4 31 10 57 13 57 4 0 31 -46 60 -101 30 -55 56 -98 59 -96 2
3 0 40 -6 82 -12 82 -13 241 -2 290 6 29 7 28 49 -44 24 -40 45 -71 46 -69 2
2 0 35 -5 73 -4 39 -10 139 -14 223 l-8 152 41 0 c41 0 41 -1 105 -97 178
-271 325 -601 417 -937 39 -143 85 -361 96 -458 l6 -53 -103 -50 c-115 -55
-229 -133 -302 -203 -53 -52 -127 -144 -127 -158 0 -5 510 -9 1255 -9 690 0
1255 4 1255 8 0 5 -21 35 -46 68 -62 80 -190 188 -291 245 -45 25 -85 55 -88
65 -14 45 20 497 51 684 70 417 185 779 355 1116 l69 136 44 10 44 10 8 -61
c8 -73 20 -306 19 -394 0 -34 3 -62 6 -62 3 0 21 36 40 80 19 44 37 80 40 80
24 0 52 -217 47 -357 -2 -57 -3 -103 -2 -103 1 0 26 56 55 125 29 69 56 125
60 125 12 0 29 -95 29 -158 0 -50 -14 -132 -36 -212 -7 -25 -7 -25 26 5 53 49
122 153 147 221 33 91 32 205 -2 313 -34 106 -121 236 -234 351 -49 49 -87 90
-85 90 14 0 297 -151 463 -248 l44 -26 -57 83 c-32 45 -55 85 -52 89 23 22
330 -124 471 -224 17 -11 36 -25 44 -29 13 -7 -49 80 -140 197 -16 20 -29 41
-29 47 0 12 86 -16 150 -49 70 -35 126 -77 192 -141 33 -33 62 -58 64 -56 2 1
-3 33 -11 69 -58 280 -304 433 -735 457 l-125 7 75 12 c41 8 104 19 139 25
l64 12 -93 29 c-84 26 -92 30 -75 42 45 33 264 84 428 99 38 4 67 8 65 10 -2
2 -59 18 -128 35 -160 42 -164 44 -115 65 77 32 184 48 281 42 50 -4 99 -9
110 -12 10 -4 -1 12 -26 34 -105 95 -257 142 -391 121 -146 -22 -287 -96 -451
-234 -43 -37 -78 -64 -78 -61 0 4 6 18 14 33 25 49 87 223 107 301 29 114 36
270 15 363 -17 77 -64 168 -114 222 -29 31 -143 109 -149 102 -3 -2 5 -23 18
-47 53 -106 85 -261 71 -351 l-7 -48 -74 120 c-41 66 -76 118 -78 116 -2 -2 6
-53 17 -112 24 -121 40 -414 23 -414 -6 0 -33 35 -62 78 -28 42 -51 73 -51 67
0 -5 5 -39 11 -75 15 -93 48 -364 45 -367 -2 -2 -19 35 -39 82 -42 100 -123
227 -192 304 -148 163 -379 271 -640 301 -138 15 -149 12 -70 -19 126 -50 243
-119 295 -175 31 -34 28 -35 -97 -66 l-98 -24 45 -9 c176 -35 319 -94 422
-174 l63 -48 -50 -7 c-27 -3 -93 -7 -145 -8 -80 -2 -177 -16 -130 -19 44 -3
552 -303 537 -317 -2 -2 -33 8 -68 22 -118 48 -285 85 -409 91 -133 6 -198 -4
-288 -47 -41 -19 -62 -25 -62 -17 0 32 -33 266 -56 392 -49 274 -142 604 -247
878 -14 37 -22 67 -16 67 13 0 69 90 69 112 0 28 14 22 93 -36 110 -82 146
-112 218 -182 64 -62 67 -63 73 -40 7 28 -1 152 -14 210 l-8 39 52 -7 c166
-19 337 -137 452 -310 l39 -60 3 32 c4 37 -21 129 -50 186 -11 21 -40 61 -65
87 l-46 49 45 0 c95 0 349 -82 533 -172 100 -49 105 -50 98 -30 -14 39 -93
150 -141 198 -136 138 -325 223 -612 276 -98 18 -154 22 -375 22 -143 1 -280
-2 -305 -6 -123 -21 152 73 389 132 217 54 565 120 632 120 32 0 40 17 11 22
-35 6 -522 183 -522 190 0 10 136 64 220 88 41 11 118 27 170 35 117 18 384
19 500 1 47 -7 86 -12 88 -11 2 2 -54 38 -125 81 -70 43 -146 89 -167 102
l-39 24 24 19 c79 61 314 132 492 150 62 6 139 14 172 18 l60 6 -110 27 c-217
53 -287 61 -505 62 -237 0 -323 -13 -515 -76 -144 -48 -297 -125 -424 -216
-109 -77 -292 -253 -376 -362 -32 -41 -62 -79 -67 -85 -9 -10 40 112 107 265
21 47 79 172 131 278 l93 193 -42 -33 c-23 -18 -82 -66 -131 -105 -49 -40 -92
-73 -96 -73 -26 0 53 266 131 443 51 115 163 331 207 401 l24 39 -25 -19 c-14
-10 -102 -86 -196 -168 -95 -82 -174 -147 -176 -144 -9 9 17 123 46 201 53
147 144 291 258 410 75 79 70 82 -68 41z m-422 -2442 c14 -6 33 -12 42 -15 36
-12 114 -528 140 -926 15 -234 7 -768 -15 -991 -48 -481 -130 -918 -254 -1345
l-38 -130 -39 -7 c-22 -4 -93 -16 -159 -28 -65 -11 -120 -20 -121 -18 -1 2
-13 50 -25 108 -115 539 -343 989 -683 1353 -41 44 -44 52 -40 88 7 49 19 50
145 9 51 -16 93 -28 95 -26 2 1 -11 29 -28 60 -16 32 -27 61 -24 65 4 3 44 6
89 6 74 0 89 -3 154 -36 40 -19 72 -34 72 -32 0 26 -73 100 -107 109 -73 20
40 46 203 48 68 0 124 3 124 6 0 17 -116 72 -181 86 -85 18 -150 13 -279 -18
-83 -20 -285 -101 -296 -119 -3 -5 -13 -9 -22 -9 -29 0 152 145 316 252 67 45
121 83 119 84 -2 2 -66 -1 -142 -6 -76 -6 -140 -9 -141 -7 -2 2 17 23 42 48
26 24 48 39 51 33 2 -6 11 -20 19 -30 14 -18 14 -16 9 21 -6 40 -5 41 47 72
41 25 167 82 181 82 2 0 16 4 62 19 l30 10 -32 1 c-40 1 -40 4 -12 115 l21 83
61 32 62 32 -52 -6 -53 -6 31 88 c17 48 47 122 65 163 38 81 111 200 124 200
5 0 12 -26 15 -57 4 -32 13 -102 21 -155 8 -54 14 -104 14 -110 0 -7 36 93 79
223 75 223 158 443 215 572 l26 58 21 -20 c12 -11 33 -24 48 -29z m-775 -900
c5 -54 3 -64 -12 -69 -9 -3 -46 -18 -81 -34 -35 -16 -66 -27 -68 -25 -16 15
56 185 108 256 l33 45 7 -55 c4 -30 9 -83 13 -118z m24 -268 c-3 -2 -27 -1
-56 3 -59 7 -59 13 5 76 l38 39 8 -57 c5 -31 7 -59 5 -61z m1587 -223 c18 -7
18 -9 -10 -24 -38 -19 -88 -72 -109 -114 -23 -47 -20 -49 21 -13 61 54 155 93
237 97 93 5 102 -1 76 -55 -11 -23 -23 -55 -26 -71 l-6 -28 61 29 c34 16 93
40 131 53 l70 24 0 -30 c0 -17 5 -39 11 -51 9 -16 6 -25 -14 -47 -111 -118
-300 -441 -401 -683 -137 -333 -202 -622 -252 -1126 -5 -50 -7 -53 -27 -48
-58 17 -195 46 -219 46 -15 0 -29 4 -33 9 -3 5 4 49 15 98 79 338 132 665 161
1003 14 158 18 656 6 817 -8 111 -8 111 15 116 40 8 272 6 293 -2z"/>
<path d="M13277 393 c-4 -3 -7 -17 -7 -30 0 -16 -6 -23 -20 -23 -11 0 -20 -7
-20 -15 0 -8 7 -15 15 -15 22 0 18 -21 -5 -27 -22 -6 -28 -33 -7 -33 9 0 12
-10 9 -30 -3 -22 0 -30 11 -30 10 0 17 11 19 27 2 14 9 28 16 31 10 3 13 -4
10 -24 -4 -39 21 -44 28 -5 5 21 12 31 25 31 11 0 19 7 19 15 0 8 -7 15 -15
15 -8 0 -15 7 -15 15 0 8 9 15 20 15 11 0 20 7 20 15 0 8 -7 15 -15 15 -11 0
-13 8 -8 30 4 23 2 30 -9 30 -9 0 -18 -13 -21 -30 -4 -16 -12 -30 -18 -30 -7
0 -10 12 -7 30 4 28 -9 40 -25 23z m33 -98 c0 -8 -7 -15 -15 -15 -9 0 -12 6
-9 15 4 8 10 15 15 15 5 0 9 -7 9 -15z"/>
<path d="M13407 382 c-19 -21 -21 -45 -7 -72 7 -13 7 -21 0 -25 -19 -12 -11
-63 12 -79 29 -20 58 -20 87 0 19 13 22 22 17 48 -4 17 -7 40 -6 51 0 11 1 31
1 44 2 47 -71 70 -104 33z m71 -40 c4 -30 -26 -42 -44 -17 -10 14 -11 22 -2
32 16 20 42 12 46 -15z m1 -81 c13 -24 -9 -45 -39 -36 -19 6 -27 34 -13 48 13
14 42 7 52 -12z"/>
<path d="M13583 335 c-56 -84 -55 -95 2 -95 41 0 45 -2 45 -25 0 -16 6 -25 15
-25 9 0 15 9 15 25 0 16 6 25 15 25 8 0 15 7 15 15 0 8 -7 15 -15 15 -12 0
-15 14 -15 65 0 87 -20 87 -77 0z m47 -30 c0 -31 -3 -35 -25 -35 l-24 0 20 35
c12 19 23 35 25 35 2 0 4 -16 4 -35z"/>
<path d="M13727 382 c-26 -28 -24 -145 3 -172 23 -23 58 -26 85 -6 15 11 20
30 23 84 4 61 1 73 -17 91 -26 26 -72 27 -94 3z m74 -39 c13 -35 2 -112 -17
-120 -27 -10 -44 17 -44 71 0 74 39 105 61 49z"/>
<path d="M13899 371 c-24 -25 -29 -37 -29 -81 0 -41 5 -56 25 -75 45 -46 105
-21 105 44 0 44 -24 71 -63 71 -33 0 -26 27 9 36 13 3 24 12 24 20 0 24 -40
15 -71 -15z m67 -96 c7 -27 -10 -55 -32 -55 -23 0 -40 46 -24 65 20 24 49 18
56 -10z"/>
<path d="M14052 384 c-24 -17 -29 -53 -10 -72 9 -9 9 -15 0 -24 -20 -20 -14
-65 10 -82 29 -20 58 -20 87 0 19 13 22 22 17 48 -4 17 -7 40 -6 51 0 11 1 31
1 44 2 46 -55 66 -99 35z m66 -42 c4 -28 -24 -40 -45 -19 -14 13 -14 19 -3 32
18 22 44 15 48 -13z m1 -80 c12 -22 -3 -42 -31 -42 -21 0 -33 22 -24 45 8 21
43 19 55 -3z"/>
<path d="M14223 385 c-40 -17 -46 -49 -8 -39 24 6 24 5 27 -72 3 -66 6 -79 21
-82 15 -3 17 7 17 102 0 115 0 116 -57 91z"/>
</g>
</svg>
